<?xml version="1.0" encoding="utf-8" standalone="no"?>
<!DOCTYPE svg PUBLIC "-//W3C//DTD SVG 1.1//EN"
  "http://www.w3.org/Graphics/SVG/1.1/DTD/svg11.dtd">
<svg xmlns:xlink="http://www.w3.org/1999/xlink" width="443.389031pt" height="259.835397pt" viewBox="0 0 443.389031 259.835397" xmlns="http://www.w3.org/2000/svg" version="1.1">
 <metadata>
  <rdf:RDF xmlns:dc="http://purl.org/dc/elements/1.1/" xmlns:cc="http://creativecommons.org/ns#" xmlns:rdf="http://www.w3.org/1999/02/22-rdf-syntax-ns#">
   <cc:Work>
    <dc:type rdf:resource="http://purl.org/dc/dcmitype/StillImage"/>
    <dc:date>2022-06-07T14:29:44.055017</dc:date>
    <dc:format>image/svg+xml</dc:format>
    <dc:creator>
     <cc:Agent>
      <dc:title>Matplotlib v3.5.1, https://matplotlib.org/</dc:title>
     </cc:Agent>
    </dc:creator>
   </cc:Work>
  </rdf:RDF>
 </metadata>
 <defs>
  <style type="text/css">*{stroke-linejoin: round; stroke-linecap: butt}</style>
 </defs>
 <g id="figure_1">
  <g id="patch_1">
   <path d="M 0 259.835397 
L 443.389031 259.835397 
L 443.389031 0 
L 0 0 
z
" style="fill: #ffffff"/>
  </g>
  <g id="axes_1">
   <g id="patch_2">
    <path d="M 354.831742 215.024695 
L 366.649001 215.024695 
L 360.740372 223.546757 
z
" clip-path="url(#pec088efbeb)" style="fill: #778899"/>
   </g>
   <g id="patch_3">
    <path d="M 400.282741 215.024695 
L 412.100001 215.024695 
L 406.191371 223.546757 
z
" clip-path="url(#pec088efbeb)" style="fill: #778899"/>
   </g>
   <g id="line2d_1">
    <path d="M 63.490835 43.5608 
L 431.643931 43.5608 
" clip-path="url(#pec088efbeb)" style="fill: none; stroke: #000000; stroke-width: 2; stroke-linecap: square"/>
   </g>
   <g id="line2d_2">
    <path d="M 63.490835 89.011799 
L 431.643931 89.011799 
" clip-path="url(#pec088efbeb)" style="fill: none; stroke: #000000; stroke-width: 2; stroke-linecap: square"/>
   </g>
   <g id="line2d_3">
    <path d="M 63.490835 134.462798 
L 431.643931 134.462798 
" clip-path="url(#pec088efbeb)" style="fill: none; stroke: #000000; stroke-width: 2; stroke-linecap: square"/>
   </g>
   <g id="line2d_4">
    <path d="M 63.490835 179.913798 
L 431.643931 179.913798 
" clip-path="url(#pec088efbeb)" style="fill: none; stroke: #000000; stroke-width: 2; stroke-linecap: square"/>
   </g>
   <g id="line2d_5">
    <path d="M 63.490835 223.88764 
L 431.643931 223.88764 
" clip-path="url(#pec088efbeb)" style="fill: none; stroke: #778899; stroke-width: 2; stroke-linecap: square"/>
   </g>
   <g id="line2d_6">
    <path d="M 63.490835 226.841955 
L 431.643931 226.841955 
" clip-path="url(#pec088efbeb)" style="fill: none; stroke: #778899; stroke-width: 2; stroke-linecap: square"/>
   </g>
   <g id="line2d_7">
    <path d="M 72.581035 229.909897 
L 77.126135 220.819697 
" clip-path="url(#pec088efbeb)" style="fill: none; stroke: #778899; stroke-width: 1.5; stroke-linecap: square"/>
   </g>
   <g id="patch_4">
    <path d="M 124.62243 66.286299 
L 142.348319 66.286299 
L 142.348319 20.8353 
L 124.62243 20.8353 
z
" clip-path="url(#pec088efbeb)" style="fill: #bdbdbd; opacity: 0.6"/>
   </g>
   <g id="patch_5">
    <path d="M 124.62243 111.737299 
L 142.348319 111.737299 
L 142.348319 66.286299 
L 124.62243 66.286299 
z
" clip-path="url(#pec088efbeb)" style="fill: #bdbdbd; opacity: 0.6"/>
   </g>
   <g id="patch_6">
    <path d="M 124.62243 157.188298 
L 142.348319 157.188298 
L 142.348319 111.737299 
L 124.62243 111.737299 
z
" clip-path="url(#pec088efbeb)" style="fill: #bdbdbd; opacity: 0.6"/>
   </g>
   <g id="patch_7">
    <path d="M 124.62243 202.639297 
L 142.348319 202.639297 
L 142.348319 157.188298 
L 124.62243 157.188298 
z
" clip-path="url(#pec088efbeb)" style="fill: #bdbdbd; opacity: 0.6"/>
   </g>
   <g id="line2d_8">
    <path d="M 178.936374 134.462798 
L 178.936374 43.5608 
" clip-path="url(#pec088efbeb)" style="fill: none; stroke: #6fa4ff; stroke-width: 2; stroke-linecap: square"/>
   </g>
   <g id="line2d_9">
    <path d="M 224.387373 134.462798 
L 224.387373 89.011799 
" clip-path="url(#pec088efbeb)" style="fill: none; stroke: #6fa4ff; stroke-width: 2; stroke-linecap: square"/>
   </g>
   <g id="line2d_10">
    <path d="M 269.838373 179.913798 
L 269.838373 43.5608 
" clip-path="url(#pec088efbeb)" style="fill: none; stroke: #bb8bff; stroke-width: 2; stroke-linecap: square"/>
   </g>
   <g id="patch_8">
    <path d="M 306.426427 66.286299 
L 324.152317 66.286299 
L 324.152317 20.8353 
L 306.426427 20.8353 
z
" clip-path="url(#pec088efbeb)" style="fill: #bdbdbd; opacity: 0.6"/>
   </g>
   <g id="patch_9">
    <path d="M 306.426427 111.737299 
L 324.152317 111.737299 
L 324.152317 66.286299 
L 306.426427 66.286299 
z
" clip-path="url(#pec088efbeb)" style="fill: #bdbdbd; opacity: 0.6"/>
   </g>
   <g id="patch_10">
    <path d="M 306.426427 157.188298 
L 324.152317 157.188298 
L 324.152317 111.737299 
L 306.426427 111.737299 
z
" clip-path="url(#pec088efbeb)" style="fill: #bdbdbd; opacity: 0.6"/>
   </g>
   <g id="patch_11">
    <path d="M 306.426427 202.639297 
L 324.152317 202.639297 
L 324.152317 157.188298 
L 306.426427 157.188298 
z
" clip-path="url(#pec088efbeb)" style="fill: #bdbdbd; opacity: 0.6"/>
   </g>
   <g id="line2d_11">
    <path d="M 362.217529 134.462798 
L 362.217529 215.024695 
" clip-path="url(#pec088efbeb)" style="fill: none; stroke: #778899; stroke-width: 2; stroke-linecap: square"/>
   </g>
   <g id="line2d_12">
    <path d="M 359.263214 134.462798 
L 359.263214 215.024695 
" clip-path="url(#pec088efbeb)" style="fill: none; stroke: #778899; stroke-width: 2; stroke-linecap: square"/>
   </g>
   <g id="line2d_13">
    <path d="M 407.668528 179.913798 
L 407.668528 215.024695 
" clip-path="url(#pec088efbeb)" style="fill: none; stroke: #778899; stroke-width: 2; stroke-linecap: square"/>
   </g>
   <g id="line2d_14">
    <path d="M 404.714213 179.913798 
L 404.714213 215.024695 
" clip-path="url(#pec088efbeb)" style="fill: none; stroke: #778899; stroke-width: 2; stroke-linecap: square"/>
   </g>
   <g id="patch_12">
    <path d="M 73.2628 58.332374 
L 102.80595 58.332374 
L 102.80595 28.789225 
L 73.2628 28.789225 
z
" clip-path="url(#pec088efbeb)" style="fill: #6fa4ff; stroke: #6fa4ff; stroke-width: 1.5; stroke-linejoin: miter"/>
   </g>
   <g id="patch_13">
    <path d="M 73.2628 103.783374 
L 102.80595 103.783374 
L 102.80595 74.240224 
L 73.2628 74.240224 
z
" clip-path="url(#pec088efbeb)" style="fill: #6fa4ff; stroke: #6fa4ff; stroke-width: 1.5; stroke-linejoin: miter"/>
   </g>
   <g id="patch_14">
    <path d="M 178.936374 47.992272 
C 180.111614 47.992272 181.238878 47.525344 182.069898 46.694324 
C 182.900919 45.863303 183.367846 44.73604 183.367846 43.5608 
C 183.367846 42.385559 182.900919 41.258296 182.069898 40.427275 
C 181.238878 39.596255 180.111614 39.129327 178.936374 39.129327 
C 177.761134 39.129327 176.63387 39.596255 175.80285 40.427275 
C 174.971829 41.258296 174.504902 42.385559 174.504902 43.5608 
C 174.504902 44.73604 174.971829 45.863303 175.80285 46.694324 
C 176.63387 47.525344 177.761134 47.992272 178.936374 47.992272 
z
" clip-path="url(#pec088efbeb)" style="fill: #6fa4ff; stroke: #6fa4ff; stroke-width: 1.5; stroke-linejoin: miter"/>
   </g>
   <g id="patch_15">
    <path d="M 178.936374 144.802901 
C 181.678601 144.802901 184.308883 143.713402 186.24793 141.774355 
C 188.186978 139.835307 189.276476 137.205026 189.276476 134.462798 
C 189.276476 131.720571 188.186978 129.090289 186.24793 127.151242 
C 184.308883 125.212194 181.678601 124.122696 178.936374 124.122696 
C 176.194147 124.122696 173.563865 125.212194 171.624817 127.151242 
C 169.68577 129.090289 168.596272 131.720571 168.596272 134.462798 
C 168.596272 137.205026 169.68577 139.835307 171.624817 141.774355 
C 173.563865 143.713402 176.194147 144.802901 178.936374 144.802901 
z
" clip-path="url(#pec088efbeb)" style="fill: #6fa4ff; stroke: #6fa4ff; stroke-width: 2; stroke-linejoin: miter"/>
   </g>
   <g id="patch_16">
    <path d="M 224.387373 93.443271 
C 225.562614 93.443271 226.689877 92.976343 227.520898 92.145323 
C 228.351918 91.314303 228.818846 90.187039 228.818846 89.011799 
C 228.818846 87.836559 228.351918 86.709295 227.520898 85.878275 
C 226.689877 85.047254 225.562614 84.580326 224.387373 84.580326 
C 223.212133 84.580326 222.084869 85.047254 221.253849 85.878275 
C 220.422829 86.709295 219.955901 87.836559 219.955901 89.011799 
C 219.955901 90.187039 220.422829 91.314303 221.253849 92.145323 
C 222.084869 92.976343 223.212133 93.443271 224.387373 93.443271 
z
" clip-path="url(#pec088efbeb)" style="fill: #6fa4ff; stroke: #6fa4ff; stroke-width: 1.5; stroke-linejoin: miter"/>
   </g>
   <g id="patch_17">
    <path d="M 224.387373 144.802901 
C 227.129601 144.802901 229.759882 143.713402 231.69893 141.774355 
C 233.637977 139.835307 234.727476 137.205026 234.727476 134.462798 
C 234.727476 131.720571 233.637977 129.090289 231.69893 127.151242 
C 229.759882 125.212194 227.129601 124.122696 224.387373 124.122696 
C 221.645146 124.122696 219.014864 125.212194 217.075817 127.151242 
C 215.136769 129.090289 214.047271 131.720571 214.047271 134.462798 
C 214.047271 137.205026 215.136769 139.835307 217.075817 141.774355 
C 219.014864 143.713402 221.645146 144.802901 224.387373 144.802901 
z
" clip-path="url(#pec088efbeb)" style="fill: #6fa4ff; stroke: #6fa4ff; stroke-width: 2; stroke-linejoin: miter"/>
   </g>
   <g id="patch_18">
    <path d="M 269.838373 47.992272 
C 271.013613 47.992272 272.140877 47.525344 272.971897 46.694324 
C 273.802917 45.863303 274.269845 44.73604 274.269845 43.5608 
C 274.269845 42.385559 273.802917 41.258296 272.971897 40.427275 
C 272.140877 39.596255 271.013613 39.129327 269.838373 39.129327 
C 268.663133 39.129327 267.535869 39.596255 266.704849 40.427275 
C 265.873828 41.258296 265.4069 42.385559 265.4069 43.5608 
C 265.4069 44.73604 265.873828 45.863303 266.704849 46.694324 
C 267.535869 47.525344 268.663133 47.992272 269.838373 47.992272 
z
" clip-path="url(#pec088efbeb)" style="fill: #bb8bff; stroke: #bb8bff; stroke-width: 1.5; stroke-linejoin: miter"/>
   </g>
   <g id="patch_19">
    <path d="M 269.838373 93.443271 
C 271.013613 93.443271 272.140877 92.976343 272.971897 92.145323 
C 273.802917 91.314303 274.269845 90.187039 274.269845 89.011799 
C 274.269845 87.836559 273.802917 86.709295 272.971897 85.878275 
C 272.140877 85.047254 271.013613 84.580326 269.838373 84.580326 
C 268.663133 84.580326 267.535869 85.047254 266.704849 85.878275 
C 265.873828 86.709295 265.4069 87.836559 265.4069 89.011799 
C 265.4069 90.187039 265.873828 91.314303 266.704849 92.145323 
C 267.535869 92.976343 268.663133 93.443271 269.838373 93.443271 
z
" clip-path="url(#pec088efbeb)" style="fill: #bb8bff; stroke: #bb8bff; stroke-width: 1.5; stroke-linejoin: miter"/>
   </g>
   <g id="patch_20">
    <path d="M 269.838373 190.2539 
C 272.5806 190.2539 275.210882 189.164402 277.149929 187.225354 
C 279.088977 185.286307 280.178475 182.656025 280.178475 179.913798 
C 280.178475 177.171571 279.088977 174.541289 277.149929 172.602241 
C 275.210882 170.663194 272.5806 169.573695 269.838373 169.573695 
C 267.096146 169.573695 264.465864 170.663194 262.526816 172.602241 
C 260.587769 174.541289 259.49827 177.171571 259.49827 179.913798 
C 259.49827 182.656025 260.587769 185.286307 262.526816 187.225354 
C 264.465864 189.164402 267.096146 190.2539 269.838373 190.2539 
z
" clip-path="url(#pec088efbeb)" style="fill: #bb8bff; stroke: #bb8bff; stroke-width: 2; stroke-linejoin: miter"/>
   </g>
   <g id="patch_21">
    <path d="M 345.968797 149.234373 
L 375.511946 149.234373 
L 375.511946 119.691224 
L 345.968797 119.691224 
z
" clip-path="url(#pec088efbeb)" style="stroke: #000000; stroke-width: 1.5; stroke-linejoin: miter"/>
   </g>
   <g id="patch_22">
    <path d="M 371.080474 138.894271 
C 371.080474 136.152957 369.99033 133.521116 368.051928 131.582714 
C 366.113526 129.644313 363.481685 128.554168 360.740372 128.554168 
C 357.999058 128.554168 355.367217 129.644313 353.428815 131.582714 
C 351.490413 133.521116 350.400269 136.152957 350.400269 138.894271 
" clip-path="url(#pec088efbeb)" style="fill: none; stroke: #ffffff; stroke-width: 2; stroke-linejoin: miter"/>
   </g>
   <g id="line2d_15">
    <path d="M 360.740372 138.894271 
L 371.080474 128.554168 
" clip-path="url(#pec088efbeb)" style="fill: none; stroke: #ffffff; stroke-width: 2; stroke-linecap: square"/>
   </g>
   <g id="patch_23">
    <path d="M 391.419796 194.685373 
L 420.962946 194.685373 
L 420.962946 165.142223 
L 391.419796 165.142223 
z
" clip-path="url(#pec088efbeb)" style="stroke: #000000; stroke-width: 1.5; stroke-linejoin: miter"/>
   </g>
   <g id="patch_24">
    <path d="M 416.531473 184.34527 
C 416.531473 181.603956 415.441329 178.972115 413.502927 177.033714 
C 411.564526 175.095312 408.932685 174.005168 406.191371 174.005168 
C 403.450057 174.005168 400.818216 175.095312 398.879814 177.033714 
C 396.941413 178.972115 395.851269 181.603956 395.851269 184.34527 
" clip-path="url(#pec088efbeb)" style="fill: none; stroke: #ffffff; stroke-width: 2; stroke-linejoin: miter"/>
   </g>
   <g id="line2d_16">
    <path d="M 406.191371 184.34527 
L 416.531473 174.005168 
" clip-path="url(#pec088efbeb)" style="fill: none; stroke: #ffffff; stroke-width: 2; stroke-linecap: square"/>
   </g>
   <g id="text_1">
    <g clip-path="url(#pec088efbeb)">
     <!-- ${q}_{0}$ -->
     <g transform="translate(36.363136 48.011776)scale(0.1625 -0.1625)">
      <defs>
       <path id="DejaVuSans-Oblique-71" d="M 2669 525 
Q 2438 222 2123 65 
Q 1809 -91 1428 -91 
Q 897 -91 595 267 
Q 294 625 294 1253 
Q 294 1759 480 2231 
Q 666 2703 1013 3078 
Q 1238 3322 1530 3453 
Q 1822 3584 2144 3584 
Q 2531 3584 2781 3431 
Q 3031 3278 3144 2969 
L 3244 3494 
L 3822 3494 
L 2888 -1319 
L 2309 -1319 
L 2669 525 
z
M 891 1338 
Q 891 875 1084 633 
Q 1278 391 1644 391 
Q 2188 391 2572 911 
Q 2956 1431 2956 2175 
Q 2956 2625 2757 2864 
Q 2559 3103 2188 3103 
Q 1916 3103 1684 2976 
Q 1453 2850 1281 2606 
Q 1100 2350 995 2006 
Q 891 1663 891 1338 
z
" transform="scale(0.015625)"/>
       <path id="DejaVuSans-30" d="M 2034 4250 
Q 1547 4250 1301 3770 
Q 1056 3291 1056 2328 
Q 1056 1369 1301 889 
Q 1547 409 2034 409 
Q 2525 409 2770 889 
Q 3016 1369 3016 2328 
Q 3016 3291 2770 3770 
Q 2525 4250 2034 4250 
z
M 2034 4750 
Q 2819 4750 3233 4129 
Q 3647 3509 3647 2328 
Q 3647 1150 3233 529 
Q 2819 -91 2034 -91 
Q 1250 -91 836 529 
Q 422 1150 422 2328 
Q 422 3509 836 4129 
Q 1250 4750 2034 4750 
z
" transform="scale(0.015625)"/>
      </defs>
      <use xlink:href="#DejaVuSans-Oblique-71"/>
      <use xlink:href="#DejaVuSans-30" transform="translate(63.476562 -16.40625)scale(0.7)"/>
     </g>
    </g>
   </g>
   <g id="text_2">
    <g clip-path="url(#pec088efbeb)">
     <!-- ${q}_{1}$ -->
     <g transform="translate(36.363136 93.462775)scale(0.1625 -0.1625)">
      <defs>
       <path id="DejaVuSans-31" d="M 794 531 
L 1825 531 
L 1825 4091 
L 703 3866 
L 703 4441 
L 1819 4666 
L 2450 4666 
L 2450 531 
L 3481 531 
L 3481 0 
L 794 0 
L 794 531 
z
" transform="scale(0.015625)"/>
      </defs>
      <use xlink:href="#DejaVuSans-Oblique-71"/>
      <use xlink:href="#DejaVuSans-31" transform="translate(63.476562 -16.40625)scale(0.7)"/>
     </g>
    </g>
   </g>
   <g id="text_3">
    <g clip-path="url(#pec088efbeb)">
     <!-- ${q}_{2}$ -->
     <g transform="translate(36.363136 138.913775)scale(0.1625 -0.1625)">
      <defs>
       <path id="DejaVuSans-32" d="M 1228 531 
L 3431 531 
L 3431 0 
L 469 0 
L 469 531 
Q 828 903 1448 1529 
Q 2069 2156 2228 2338 
Q 2531 2678 2651 2914 
Q 2772 3150 2772 3378 
Q 2772 3750 2511 3984 
Q 2250 4219 1831 4219 
Q 1534 4219 1204 4116 
Q 875 4013 500 3803 
L 500 4441 
Q 881 4594 1212 4672 
Q 1544 4750 1819 4750 
Q 2544 4750 2975 4387 
Q 3406 4025 3406 3419 
Q 3406 3131 3298 2873 
Q 3191 2616 2906 2266 
Q 2828 2175 2409 1742 
Q 1991 1309 1228 531 
z
" transform="scale(0.015625)"/>
      </defs>
      <use xlink:href="#DejaVuSans-Oblique-71"/>
      <use xlink:href="#DejaVuSans-32" transform="translate(63.476562 -16.40625)scale(0.7)"/>
     </g>
    </g>
   </g>
   <g id="text_4">
    <g clip-path="url(#pec088efbeb)">
     <!-- ${q}_{3}$ -->
     <g transform="translate(36.363136 184.364774)scale(0.1625 -0.1625)">
      <defs>
       <path id="DejaVuSans-33" d="M 2597 2516 
Q 3050 2419 3304 2112 
Q 3559 1806 3559 1356 
Q 3559 666 3084 287 
Q 2609 -91 1734 -91 
Q 1441 -91 1130 -33 
Q 819 25 488 141 
L 488 750 
Q 750 597 1062 519 
Q 1375 441 1716 441 
Q 2309 441 2620 675 
Q 2931 909 2931 1356 
Q 2931 1769 2642 2001 
Q 2353 2234 1838 2234 
L 1294 2234 
L 1294 2753 
L 1863 2753 
Q 2328 2753 2575 2939 
Q 2822 3125 2822 3475 
Q 2822 3834 2567 4026 
Q 2313 4219 1838 4219 
Q 1578 4219 1281 4162 
Q 984 4106 628 3988 
L 628 4550 
Q 988 4650 1302 4700 
Q 1616 4750 1894 4750 
Q 2613 4750 3031 4423 
Q 3450 4097 3450 3541 
Q 3450 3153 3228 2886 
Q 3006 2619 2597 2516 
z
" transform="scale(0.015625)"/>
      </defs>
      <use xlink:href="#DejaVuSans-Oblique-71"/>
      <use xlink:href="#DejaVuSans-33" transform="translate(63.476562 -16.40625)scale(0.7)"/>
     </g>
    </g>
   </g>
   <g id="text_5">
    <g clip-path="url(#pec088efbeb)">
     <!-- 2 -->
     <g transform="translate(68.035935 218.656822)scale(0.104 -0.104)">
      <use xlink:href="#DejaVuSans-32"/>
     </g>
    </g>
   </g>
   <g id="text_6">
    <g clip-path="url(#pec088efbeb)">
     <!-- c -->
     <g transform="translate(45.465675 229.848781)scale(0.1625 -0.1625)">
      <defs>
       <path id="DejaVuSans-63" d="M 3122 3366 
L 3122 2828 
Q 2878 2963 2633 3030 
Q 2388 3097 2138 3097 
Q 1578 3097 1268 2742 
Q 959 2388 959 1747 
Q 959 1106 1268 751 
Q 1578 397 2138 397 
Q 2388 397 2633 464 
Q 2878 531 3122 666 
L 3122 134 
Q 2881 22 2623 -34 
Q 2366 -91 2075 -91 
Q 1284 -91 818 406 
Q 353 903 353 1747 
Q 353 2603 823 3093 
Q 1294 3584 2113 3584 
Q 2378 3584 2631 3529 
Q 2884 3475 3122 3366 
z
" transform="scale(0.015625)"/>
      </defs>
      <use xlink:href="#DejaVuSans-63"/>
     </g>
    </g>
   </g>
   <g id="text_7">
    <g clip-path="url(#pec088efbeb)">
     <!-- H -->
     <g transform="translate(83.146172 47.147987)scale(0.13 -0.13)">
      <defs>
       <path id="DejaVuSans-48" d="M 628 4666 
L 1259 4666 
L 1259 2753 
L 3553 2753 
L 3553 4666 
L 4184 4666 
L 4184 0 
L 3553 0 
L 3553 2222 
L 1259 2222 
L 1259 0 
L 628 0 
L 628 4666 
z
" transform="scale(0.015625)"/>
      </defs>
      <use xlink:href="#DejaVuSans-48"/>
     </g>
    </g>
   </g>
   <g id="text_8">
    <g clip-path="url(#pec088efbeb)">
     <!-- H -->
     <g transform="translate(83.146172 92.598986)scale(0.13 -0.13)">
      <use xlink:href="#DejaVuSans-48"/>
     </g>
    </g>
   </g>
   <g id="line2d_17">
    <path d="M 133.485375 20.8353 
L 133.485375 66.286299 
" clip-path="url(#pec088efbeb)" style="fill: none; stroke-dasharray: 3.7,1.6; stroke-dashoffset: 0; stroke: #000000"/>
   </g>
   <g id="line2d_18">
    <path d="M 133.485375 66.286299 
L 133.485375 111.737299 
" clip-path="url(#pec088efbeb)" style="fill: none; stroke-dasharray: 3.7,1.6; stroke-dashoffset: 0; stroke: #000000"/>
   </g>
   <g id="line2d_19">
    <path d="M 133.485375 111.737299 
L 133.485375 157.188298 
" clip-path="url(#pec088efbeb)" style="fill: none; stroke-dasharray: 3.7,1.6; stroke-dashoffset: 0; stroke: #000000"/>
   </g>
   <g id="line2d_20">
    <path d="M 133.485375 157.188298 
L 133.485375 202.639297 
" clip-path="url(#pec088efbeb)" style="fill: none; stroke-dasharray: 3.7,1.6; stroke-dashoffset: 0; stroke: #000000"/>
   </g>
   <g id="line2d_21">
    <path d="M 178.936374 140.371428 
L 178.936374 128.554168 
" clip-path="url(#pec088efbeb)" style="fill: none; stroke: #ffffff; stroke-width: 2; stroke-linecap: square"/>
   </g>
   <g id="line2d_22">
    <path d="M 173.027744 134.462798 
L 184.845004 134.462798 
" clip-path="url(#pec088efbeb)" style="fill: none; stroke: #ffffff; stroke-width: 2; stroke-linecap: square"/>
   </g>
   <g id="line2d_23">
    <path d="M 224.387373 140.371428 
L 224.387373 128.554168 
" clip-path="url(#pec088efbeb)" style="fill: none; stroke: #ffffff; stroke-width: 2; stroke-linecap: square"/>
   </g>
   <g id="line2d_24">
    <path d="M 218.478743 134.462798 
L 230.296003 134.462798 
" clip-path="url(#pec088efbeb)" style="fill: none; stroke: #ffffff; stroke-width: 2; stroke-linecap: square"/>
   </g>
   <g id="line2d_25">
    <path d="M 269.838373 185.822428 
L 269.838373 174.005168 
" clip-path="url(#pec088efbeb)" style="fill: none; stroke: #ffffff; stroke-width: 2; stroke-linecap: square"/>
   </g>
   <g id="line2d_26">
    <path d="M 263.929743 179.913798 
L 275.747003 179.913798 
" clip-path="url(#pec088efbeb)" style="fill: none; stroke: #ffffff; stroke-width: 2; stroke-linecap: square"/>
   </g>
   <g id="line2d_27">
    <path d="M 315.289372 20.8353 
L 315.289372 66.286299 
" clip-path="url(#pec088efbeb)" style="fill: none; stroke-dasharray: 3.7,1.6; stroke-dashoffset: 0; stroke: #000000"/>
   </g>
   <g id="line2d_28">
    <path d="M 315.289372 66.286299 
L 315.289372 111.737299 
" clip-path="url(#pec088efbeb)" style="fill: none; stroke-dasharray: 3.7,1.6; stroke-dashoffset: 0; stroke: #000000"/>
   </g>
   <g id="line2d_29">
    <path d="M 315.289372 111.737299 
L 315.289372 157.188298 
" clip-path="url(#pec088efbeb)" style="fill: none; stroke-dasharray: 3.7,1.6; stroke-dashoffset: 0; stroke: #000000"/>
   </g>
   <g id="line2d_30">
    <path d="M 315.289372 157.188298 
L 315.289372 202.639297 
" clip-path="url(#pec088efbeb)" style="fill: none; stroke-dasharray: 3.7,1.6; stroke-dashoffset: 0; stroke: #000000"/>
   </g>
   <g id="text_9">
    <g clip-path="url(#pec088efbeb)">
     <!-- 0 -->
     <g transform="translate(372.103121 218.656822)scale(0.104 -0.104)">
      <use xlink:href="#DejaVuSans-30"/>
     </g>
    </g>
   </g>
   <g id="text_10">
    <g clip-path="url(#pec088efbeb)">
     <!-- 1 -->
     <g transform="translate(417.554121 218.656822)scale(0.104 -0.104)">
      <use xlink:href="#DejaVuSans-31"/>
     </g>
    </g>
   </g>
  </g>
 </g>
 <defs>
  <clipPath id="pec088efbeb">
   <rect x="7.2" y="7.2" width="428.989031" height="245.435397"/>
  </clipPath>
 </defs>
</svg>
